<svg width="116" height="116" viewBox="0 0 116 116" fill="none" xmlns="http://www.w3.org/2000/svg">
<g clip-path="url(#clip0_40_172)">
<path d="M102.122 101.79C102.463 104.989 100.534 107.994 97.4818 109.018C84.8476 113.685 71.4794 116.05 58.011 116C44.5441 116.049 31.1733 113.685 18.5384 109.018C17.0561 108.522 15.7869 107.535 14.9394 106.222C14.0919 104.908 13.7164 103.345 13.8748 101.79V0H102.12L102.122 101.79Z" fill="#0D62A6"/>
<path d="M37.5186 62.0206C25.1828 54.3972 21.2605 51.0187 20.9161 46.0089C20.8912 44.6692 21.0915 43.3347 21.5088 42.0613L20.3488 41.2964C19.3706 42.8503 18.8331 44.6408 18.7937 46.4766C18.7747 48.9083 19.4884 51.2894 20.8418 53.3097C23.0096 56.3511 25.7501 58.9411 28.9074 60.9331C33.2082 64.0601 36.6111 68.263 38.7747 73.1203H39.4634V68.1867C45.9522 71.8624 51.6507 75.3171 54.4637 81.5086H55.1524C54.0921 75.0452 50.4889 70.1116 37.5132 62.0188L37.5186 62.0206ZM93.8149 81.4143H92.9757C92.9757 76.8504 88.8069 75.6143 84.4153 75.6143H70.749C71.2476 78.0488 71.3473 80.5482 71.0444 83.0147H70.3557C69.0978 72.7741 63.2996 67.6937 55.2086 62.2671V66.9306H54.538C51.8527 61.8778 47.9538 57.5715 43.1918 54.399L39.5414 51.8071V56.7408H38.8526C36.9531 51.8071 33.5964 48.1314 28.6664 43.6908C23.363 38.9058 21.2659 36.0674 19.9664 32.7614C19.2051 30.9489 18.8028 28.9551 18.7828 26.9886C18.6016 23.4723 20.3379 20.1373 23.3141 18.2306V20.1301C22.0954 21.7963 21.447 23.8114 21.4653 25.8757C21.4634 27.9163 21.9454 29.9282 22.8718 31.7464C25.857 37.4449 35.9218 44.4266 42.3127 48.6933C62.1958 62.0151 66.1434 64.3587 69.4494 71.4148C69.9318 72.4038 70.3202 73.4361 70.6094 74.4978L85.8054 72.1542L87.3352 71.9821C89.0975 70.8426 90.6015 69.3465 91.7504 67.5904L84.1271 66.9977C83.7891 67.7489 83.4104 68.481 82.9924 69.1908H82.2674C82.4487 68.4259 82.6626 67.6611 82.8112 66.8962L80.8628 66.7476V66.3524L82.9344 66.1059C83.3137 64.0956 83.5283 62.0576 83.5761 60.0123L73.9789 59.4686V62.2308H73.4061C73.2249 61.2702 73.0364 60.3313 72.9131 59.3943H70.8143V58.6294H72.8134C72.5651 56.3275 72.4981 54.0075 72.6322 51.6966L67.0134 51.4501C67.2986 51.9404 67.5458 52.4518 67.7529 52.9798C68.6352 55.9179 68.771 59.0295 68.1481 62.0333H67.5808C67.4218 59.8795 66.922 57.7645 66.0999 55.7674C64.5448 52.1171 61.1663 48.8836 55.2195 45.1353V49.7989H54.5561C52.6077 43.6364 47.7719 40.2506 40.5926 36.5676C34.6712 33.5335 32.8206 29.8578 33.1922 24.2318L35.1914 25.4153C35.4542 30.1278 39.3474 33.7746 44.0473 33.7528C46.4447 33.7121 48.8326 33.4396 51.1776 32.939C54.0515 32.0638 57.1039 31.9532 60.0335 32.6182V29.4173H58.0108C56.7761 30.3449 55.2623 30.8243 53.7188 30.7767C52.8582 30.8411 51.9935 30.7277 51.1786 30.4436C50.3637 30.1595 49.616 29.7107 48.9821 29.1252C48.3481 28.5397 47.8414 27.8299 47.4935 27.0401C47.1456 26.2504 46.964 25.3974 46.9599 24.5344C46.9599 20.2424 50.5849 19.6008 53.5466 19.6008H58.6542C59.1886 19.6281 59.7147 19.4606 60.135 19.1296C60.4975 18.8073 60.7188 18.3556 60.7513 17.8717C60.8092 17.2066 60.8092 16.5376 60.7513 15.8725V12.7369H47.0596V18.1635L41.8795 16.1698V14.7633H44.3445V12.7151H35.0899V8.18388H31.9361C30.9833 8.16866 30.0614 8.52192 29.3627 9.16996C28.664 9.818 28.2425 10.7108 28.1861 11.6621C28.0719 12.1376 28.0655 12.6327 28.1673 13.1111C28.2692 13.5894 28.4767 14.039 28.7747 14.4268C29.0726 14.8146 29.4536 15.1309 29.8896 15.3525C30.3256 15.5741 30.8056 15.6954 31.2945 15.7076H31.6896V18.323H31.2945C29.4458 18.3629 27.6641 17.6524 26.3573 16.3293C25.0504 15.0061 24.3273 13.2444 24.3635 11.3993C24.3821 10.4124 24.5981 9.43917 24.9987 8.53705C25.3993 7.63494 25.9765 6.82216 26.6962 6.14663C28.1498 4.78181 30.0856 4.08038 32.0793 4.16738H38.7856V8.69863H64.7877V15.3596C64.7877 16.4942 64.7877 17.9986 64.6155 18.9374C64.514 20.1029 63.9213 21.1704 62.9879 21.8737C61.8061 22.5715 60.4504 22.8706 59.0656 22.7364C58.424 22.7364 56.6006 22.7364 54.3785 22.5643C51.4187 22.383 50.5795 23.5249 50.4563 24.587C50.4327 24.8002 50.4327 25.0154 50.4563 25.2286C51.2199 24.5943 52.1285 24.1587 53.1013 23.9608C54.0741 23.7628 55.0807 23.8086 56.0315 24.094C59.9538 25.3265 60.9651 25.4534 63.1111 23.8221L63.2344 24.3151C62.9127 24.7974 62.5127 25.2226 62.0508 25.573H63.9503V35.8879L69.8464 32.3608H86.3999L94.5653 36.6293C94.9904 36.815 95.3597 37.1085 95.6366 37.4807C95.9135 37.853 96.0884 38.2911 96.1439 38.7517C96.2639 39.6032 96.0989 40.4706 95.6745 41.2185L92.5171 46.3986C95.8793 50.0236 97.5686 54.9174 97.1807 59.8601C96.7928 64.8028 94.3604 69.3576 90.469 72.4261C92.4839 73.0274 94.2276 74.3093 95.4026 76.0529L93.8149 81.4143ZM56.8272 26.1004C55.1162 25.4751 53.1968 25.8884 51.8936 27.1608C52.6624 27.52 53.5143 27.664 54.3586 27.5776C54.8573 27.5354 55.3415 27.3883 55.7794 27.1459C56.2174 26.9035 56.5991 26.5714 56.8997 26.1711L56.8272 26.1004ZM55.495 40.9031L62.107 37.0063C60.7476 36.3175 59.2433 35.955 57.7153 35.9459C55.0486 36.1855 52.4024 36.6143 49.7965 37.2292C50.6121 37.8219 53.5484 39.6942 55.5421 40.9539L55.495 40.9031ZM84.7542 41.32L85.6677 40.0368L84.2612 38.1626L84.4841 37.7458L88.4318 39.8664L87.6415 42.5561C88.3339 42.9132 89.0009 43.3174 89.6407 43.7651L92.1057 39.5709L85.4937 36.1163H70.9629L59.0964 43.2703C61.2038 44.6775 63.1336 46.334 64.8439 48.2039C68.1209 43.5276 73.4442 40.7128 79.1518 40.6276C81.062 40.5769 82.9685 40.8264 84.8013 41.3671L84.7542 41.32ZM83.5706 57.8989C83.5314 55.936 83.3252 53.9799 82.9544 52.0518L75.1606 51.8053C74.6477 54.0311 74.2906 56.2894 74.1003 58.5659L83.5706 57.8989ZM86.1861 52.1533C86.4195 54.0108 86.4693 55.8867 86.3347 57.7539L94.007 57.3371C93.8215 55.6215 93.3369 53.9517 92.5751 52.4034L86.1861 52.1533ZM82.2638 49.6883C81.7118 47.7392 80.951 45.8554 79.9946 44.0696H79.0811C78.5446 44.0804 77.9936 44.1239 77.477 44.1928C76.7103 46.1068 76.0687 48.0679 75.5521 50.0653L82.2638 49.6883ZM84.3844 45.0248C84.9242 46.481 85.3609 47.9733 85.6913 49.4908L90.3548 49.3421C88.7697 47.4512 86.7453 45.9775 84.4588 45.0501L84.3844 45.0248ZM93.0192 64.781C93.5938 63.4343 93.9254 61.9988 94.0052 60.5398L86.0374 60.0957C85.7221 62.0894 85.1928 64.0071 84.4606 65.8685L93.0192 64.781ZM73.2793 45.2694C70.7736 46.3649 68.6334 48.1541 67.1113 50.426L72.5633 50.1306C72.734 48.5184 73.0144 46.9197 73.4025 45.3456L73.2793 45.2694Z" fill="#FFDD00"/>
<path d="M63.2164 93.2542C65.6271 92.9642 67.4668 90.9668 67.5592 88.5417C67.5592 86.0767 66.5478 83.6081 59.615 83.6081H47.9461V83.88C48.4242 84.039 48.862 84.3 49.2294 84.6448C50.0313 85.6193 50.4289 86.8642 50.3405 88.123V105.664H60.0609C65.415 105.664 69.263 103.616 69.263 98.9545C69.2715 98.1741 69.1185 97.4003 68.8134 96.682C68.5083 95.9636 68.0578 95.3161 67.4903 94.7803C66.9227 94.2448 66.2501 93.8329 65.515 93.5709C64.7799 93.3088 63.9985 93.2022 63.2201 93.2578L63.2164 93.2542ZM58.2828 85.678C60.7478 85.678 62.4516 86.2217 62.4516 88.8607C62.4516 91.4997 60.1823 92.4621 57.5179 92.4621H55.2813V85.678H58.2828ZM58.5293 103.613H55.3937V94.5085H58.281C62.4008 94.5085 63.9795 95.741 63.9795 98.8258C63.9795 101.911 61.9858 103.611 58.5275 103.611L58.5293 103.613ZM39.286 105.565H45.6261L37.5188 95.2298C40.7505 94.3671 43.1919 92.5908 43.1919 89.3573C43.1919 85.5819 40.9227 83.5845 34.9994 83.5845H22.6636V83.88C23.1399 84.0548 23.5763 84.3235 23.9468 84.6702C24.3812 85.209 24.7033 85.8293 24.8941 86.4945C25.0849 87.1597 25.1406 87.8564 25.0579 88.5435V105.69H30.2634V95.8225H32.1121L39.286 105.565ZM30.2815 85.6816H33.6129C36.4494 85.6816 37.9556 86.5208 37.9556 89.5295C37.9408 90.1462 37.7956 90.7526 37.5294 91.3091C37.2633 91.8655 36.8824 92.3593 36.4117 92.7579C35.941 93.1565 35.3912 93.4509 34.7985 93.6218C34.2059 93.7926 33.5837 93.836 32.9731 93.749H30.2833L30.2815 85.6816ZM89.7859 86.5933C90.5471 86.992 91.1634 87.6083 91.5621 88.3695C91.5972 88.3853 91.6352 88.3934 91.6736 88.3934C91.712 88.3934 91.75 88.3853 91.7851 88.3695L92.8218 84.6684C90.7655 83.5666 88.4389 83.0701 86.1119 83.2365C78.958 83.2365 73.6057 86.838 73.6057 94.7096C73.6057 103.591 79.9712 105.886 85.5954 105.886C88.1753 106.137 90.7682 105.558 92.9958 104.233V101.768C91.3279 103.012 89.2727 103.624 87.1958 103.495C83.9333 103.495 79.1302 102.014 79.0305 94.7115C79.0305 87.9762 81.8671 85.7813 85.8147 85.7813C87.1886 85.678 88.5643 85.9589 89.8022 86.5969L89.7859 86.5933Z" fill="white"/>
</g>
<defs>
<clipPath id="clip0_40_172">
<rect width="116" height="116" fill="white"/>
</clipPath>
</defs>
</svg>
